<?xml version="1.0" encoding="UTF-8"?>
<!DOCTYPE svg PUBLIC "-//W3C//DTD SVG 1.1//EN" "http://www.w3.org/Graphics/SVG/1.1/DTD/svg11.dtd">
<svg xmlns="http://www.w3.org/2000/svg" version="1.1" width="600px" height="600px" style="shape-rendering:geometricPrecision; text-rendering:geometricPrecision; image-rendering:optimizeQuality; fill-rule:evenodd; clip-rule:evenodd" xmlns:xlink="http://www.w3.org/1999/xlink">
<g><path style="opacity:0.969" fill="#00003a" d="M 89.5,121.5 C 95.8333,121.5 102.167,121.5 108.5,121.5C 108.5,129.833 108.5,138.167 108.5,146.5C 83.1275,147.031 68.9609,160.031 66,185.5C 64.8073,208.479 64.1407,231.479 64,254.5C 59.9137,273.909 49.0804,288.075 31.5,297C 48.0563,303.893 58.5563,316.06 63,333.5C 64.2801,356.125 64.9467,378.792 65,401.5C 64.7976,415.887 68.7976,428.887 77,440.5C 85.6663,449.114 96.1663,453.114 108.5,452.5C 108.5,460.833 108.5,469.167 108.5,477.5C 68.1918,479.265 44.6918,460.265 38,420.5C 37.0678,394.818 36.0678,369.151 35,343.5C 29.8537,326.019 18.5203,315.019 1,310.5C 0.500212,301.173 0.333546,291.839 0.5,282.5C 21.4742,277.921 33.3075,264.921 36,243.5C 36.1513,221.812 36.8179,200.146 38,178.5C 41.8438,147.168 59.0104,128.168 89.5,121.5 Z"/></g>
<g><path style="opacity:0.969" fill="#00003a" d="M 599.5,282.5 C 599.5,291.833 599.5,301.167 599.5,310.5C 576.735,315.77 564.568,330.103 563,353.5C 562.667,373.833 562.333,394.167 562,414.5C 557.775,457.231 534.275,478.231 491.5,477.5C 491.5,469.167 491.5,460.833 491.5,452.5C 509.158,453.094 521.658,445.427 529,429.5C 531.683,422.756 533.349,415.756 534,408.5C 534.333,385.833 534.667,363.167 535,340.5C 538.208,320.231 549.041,305.731 567.5,297C 549.694,287.208 538.861,272.375 535,252.5C 534.667,231.5 534.333,210.5 534,189.5C 533.516,174.033 527.349,161.533 515.5,152C 508.053,147.81 500.053,145.977 491.5,146.5C 491.5,138.167 491.5,129.833 491.5,121.5C 530.687,119.669 553.853,138.002 561,176.5C 562.236,197.471 562.903,218.471 563,239.5C 564.631,262.953 576.798,277.286 599.5,282.5 Z"/></g>
<g><path style="opacity:0.994" fill="#0065c7" d="M 300.5,146.5 C 367.143,171.32 433.477,196.987 499.5,223.5C 433.943,248.52 368.11,272.853 302,296.5C 235.89,272.853 170.057,248.52 104.5,223.5C 169.913,197.784 235.247,172.117 300.5,146.5 Z"/></g>
<g><path style="opacity:0.974" fill="#004991" d="M 142.5,259.5 C 195.682,279.061 248.848,298.728 302,318.5C 354.85,298.938 407.683,279.272 460.5,259.5C 473.54,264.569 486.54,269.735 499.5,275C 433.968,300.177 368.134,324.677 302,348.5C 235.876,324.684 170.042,300.184 104.5,275C 117.307,269.905 129.974,264.738 142.5,259.5 Z"/></g>
<g><path style="opacity:0.973" fill="#002c6c" d="M 142.5,311.5 C 195.852,330.673 249.019,350.34 302,370.5C 354.69,350.547 407.523,330.88 460.5,311.5C 473.54,316.569 486.54,321.735 499.5,327C 433.929,352.081 368.096,376.581 302,400.5C 235.915,376.584 170.082,352.084 104.5,327C 117.307,321.905 129.974,316.738 142.5,311.5 Z"/></g>
<g><path style="opacity:0.969" fill="#00003a" d="M 141.5,363.5 C 195.222,382.464 248.722,402.131 302,422.5C 354.706,402.542 407.54,382.875 460.5,363.5C 473.534,368.567 486.534,373.734 499.5,379C 433.932,404.08 368.099,428.58 302,452.5C 235.901,428.58 170.068,404.08 104.5,379C 117.056,374.101 129.389,368.934 141.5,363.5 Z"/></g>
</svg>
