<svg width="393" height="89" viewBox="0 0 393 89" fill="none" xmlns="http://www.w3.org/2000/svg">
<path d="M180.441 76.5627C162.791 76.5627 153.067 63.8014 153.067 44.6861C153.067 25.5708 161.393 12.4365 179.376 12.4365C197.359 12.4365 207.283 26.1036 207.283 43.0876V47.8165H165.922C166.987 58.4065 171.317 64.574 180.441 64.574C189.566 64.574 191.564 61.2038 193.496 54.8099L205.618 59.4055C201.288 70.262 192.83 76.5627 180.441 76.5627ZM179.442 24.3586C170.251 24.3586 165.988 30.8991 165.988 37.8925H193.096C192.963 31.0323 188.434 24.3586 179.442 24.3586Z" fill="#545459"/>
<path d="M152.335 13.3955H118.566V75.6035H131.354V42.4348C131.354 32.5108 138.215 25.1844 147.139 25.1844H152.335V13.3955Z" fill="#545459"/>
<path d="M259.767 13.4023H259.633H214.942V75.6103H228.396V25.7907H230.261C237.854 25.7907 240.651 31.3188 240.651 38.9782V75.6103H254.105V25.7907H256.037C263.63 25.7907 266.427 31.3188 266.427 38.9782V75.6103H279.881V34.8488C279.881 21.588 269.258 13.4823 259.767 13.409V13.4023Z" fill="#545459"/>
<path d="M330.899 13.3623H317.445V62.1163H313.649C306.056 62.1163 302.726 57.2542 302.726 49.728V13.3623H289.272V52.7918C289.272 66.1125 296.665 75.4371 309.586 75.4371C309.679 75.4371 309.766 75.4371 309.853 75.4371H330.966V13.3623H330.899Z" fill="#545459"/>
<path d="M355.07 0.761719V75.4912H341.609V0.761719H355.07Z" fill="#545459"/>
<path d="M365.467 60.0587V0.748047H378.701V13.4228H391.655V25.4381H378.701V57.8275C378.701 63.3623 381.878 63.9484 386.94 63.9484C389.298 63.9484 390.59 63.8285 392.714 63.5954V75.4909C390.124 75.9637 386.587 76.3167 382.937 76.3167C371.161 76.3167 365.467 72.6669 365.467 60.0654V60.0587Z" fill="#545459"/>
<path d="M6.57999 88.5V50.1785H0.115234V38.8215H6.57999V0.5H32.9668V10.0638H29.0748C24.7869 10.0638 18.9818 13.783 18.7179 20.9558V67.1143C18.7179 76.2132 25.9743 78.8034 29.2067 78.8034H32.9668V88.3672H6.51404L6.57999 88.5Z" fill="#545459"/>
<path d="M81.6505 0.566406V38.8215H88.1153V50.1785H81.6505V88.5H47.2817V78.9362H58.9843C63.2721 78.9362 69.0772 75.217 69.3411 68.0441V53.1007C69.3411 51.2876 70.4691 50.7231 72.679 50.9954C74.8889 51.2677 75.9708 49.7601 75.9906 48.4052C76.0829 42.5075 69.5126 40.349 69.5126 30.7853V21.8857C69.5126 12.7868 62.2562 10.1966 59.0239 10.1966H48.0074V0.632821H81.7165L81.6505 0.566406Z" fill="#545459"/>
<path d="M54.162 37.6323C57.9182 37.6323 60.9632 34.5666 60.9632 30.7849C60.9632 27.0032 57.9182 23.9375 54.162 23.9375C50.4058 23.9375 47.3608 27.0032 47.3608 30.7849C47.3608 34.5666 50.4058 37.6323 54.162 37.6323Z" fill="#545459"/>
<path d="M54.3071 58.1543C54.3071 58.1543 57.6536 60.1534 62.0342 60.1534C66.8443 60.1534 69.3608 60.1534 69.3608 60.1534V67.1801H61.2864C57.4339 67.1801 54.3071 63.3679 54.3071 59.4892V58.1543Z" fill="#545459"/>
</svg>
