<svg xmlns="http://www.w3.org/2000/svg" width="46.643" height="58.803"><path stroke="#fff" d="m36.953 48.77 1.783-33.73h4.104c.3 0 .515-.194.515-.495 0-.28-.214-.494-.515-.494H31.99v-3.696c0-2.341-1.826-4.146-4.49-4.146h-8.357c-2.664 0-4.47 1.805-4.47 4.146v3.696H3.825c-.3 0-.537.236-.537.494 0 .3.236.494.537.494H7.95l1.805 33.73c.107 2.085 1.912 3.825 4.06 3.825H32.85c2.148 0 3.996-1.74 4.103-3.824ZM15.727 10.355c0-1.783 1.353-3.136 3.416-3.136H27.5c2.063 0 3.438 1.353 3.438 3.136v3.696H15.726Zm-1.891 41.229c-1.633 0-2.986-1.332-3.072-2.9L9.002 15.039h28.682l-1.762 33.645c-.086 1.568-1.44 2.9-3.05 2.9Zm16.006-5.092c.3 0 .537-.215.537-.494l.795-25.33c0-.28-.215-.537-.494-.537-.301 0-.516.215-.516.494l-.795 25.309c0 .3.194.558.473.558Zm-13.02 0c.28 0 .494-.258.494-.558L16.5 20.625c0-.28-.236-.494-.537-.494-.258 0-.473.215-.473.537l.817 25.33c0 .28.214.494.515.494Zm6.532 0c.257 0 .494-.258.494-.515v-25.33c0-.301-.215-.516-.494-.516a.509.509 0 0 0-.516.515v25.33c0 .258.236.516.516.516Z"/></svg>