<svg width="851" height="192" viewBox="0 0 851 192" fill="none" xmlns="http://www.w3.org/2000/svg">
<path d="M390.617 165.441C352.404 165.441 331.35 137.812 331.35 96.4267C331.35 55.0409 349.375 26.6045 388.31 26.6045C427.244 26.6045 448.73 56.1946 448.73 92.9659V103.204H359.181C361.488 126.132 370.861 139.485 390.617 139.485C410.373 139.485 414.699 132.189 418.88 118.345L445.125 128.295C435.752 151.8 417.438 165.441 390.617 165.441ZM388.454 52.4165C368.554 52.4165 359.325 66.577 359.325 81.7181H418.015C417.727 66.8654 407.921 52.4165 388.454 52.4165Z" fill="white"/>
<path d="M329.764 28.6816H256.654V163.365H284.341V91.5533C284.341 70.0673 299.193 54.2052 318.516 54.2052H329.764V28.6816Z" fill="white"/>
<path d="M562.36 28.6963H562.072H465.313V163.38H494.442V55.5177H498.479C514.918 55.5177 520.975 67.4864 520.975 84.0695V163.38H550.103V55.5177H554.285C570.724 55.5177 576.78 67.4864 576.78 84.0695V163.38H605.909V75.129C605.909 46.4186 582.909 28.8693 562.36 28.7107V28.6963Z" fill="white"/>
<path d="M716.367 28.6094H687.239V134.165H679.019C662.58 134.165 655.37 123.638 655.37 107.343V28.6094H626.242V113.976C626.242 142.817 642.248 163.005 670.223 163.005C670.425 163.005 670.612 163.005 670.8 163.005H716.512V28.6094H716.367Z" fill="white"/>
<path d="M768.698 1.32715V163.121H739.555V1.32715H768.698Z" fill="white"/>
<path d="M791.208 129.709V1.29785H819.86V28.7393H847.907V54.7532H819.86V124.878C819.86 136.861 826.739 138.13 837.698 138.13C842.803 138.13 845.6 137.871 850.2 137.366V163.12C844.591 164.144 836.934 164.908 829.032 164.908C803.537 164.908 791.208 157.006 791.208 129.723V129.709Z" fill="white"/>
<path d="M14.197 191.286V108.318H0.200439V83.729H14.197V0.760742H71.326V21.4669H62.8995C53.616 21.4669 41.0477 29.5192 40.4764 45.0488V144.985C40.4764 164.684 56.1868 170.292 63.1851 170.292H71.326V190.998H14.0542L14.197 191.286Z" fill="white"/>
<path d="M176.729 0.904297V83.7288H190.726V108.317H176.729V191.286H102.319V170.579H127.655C136.939 170.579 149.507 162.527 150.078 146.997V114.644C150.078 110.719 152.521 109.496 157.305 110.086C162.09 110.676 164.432 107.411 164.475 104.478C164.675 91.7093 150.45 87.036 150.45 66.3299V47.0617C150.45 27.3621 134.739 21.7542 127.741 21.7542H103.89V1.04809H176.872L176.729 0.904297Z" fill="white"/>
<path d="M117.215 81.1549C125.347 81.1549 131.94 74.5175 131.94 66.3299C131.94 58.1423 125.347 51.5049 117.215 51.5049C109.083 51.5049 102.49 58.1423 102.49 66.3299C102.49 74.5175 109.083 81.1549 117.215 81.1549Z" fill="white"/>
<path d="M117.529 125.586C117.529 125.586 124.774 129.914 134.259 129.914C144.673 129.914 150.121 129.914 150.121 129.914V145.127H132.64C124.299 145.127 117.529 136.874 117.529 128.476V125.586Z" fill="white"/>
</svg>
